[
  {
    "duration_time": "0.064000",
    "pts_time": "0.000000"
  },
  {
    "duration_time": "0.064000",
    "pts_time": "0.064000"
  },
  {
    "duration_time": "0.064000",
    "pts_time": "0.128000"
  },
  {
    "duration_time": "0.064000",
    "pts_time": "0.192000"
  },
  {
    "duration_time": "0.064000",
    "pts_time": "0.256000"
  },
  {
    "duration_time": "0.064000",
    "pts_time": "0.320000"
  },
  {
    "duration_time": "0.064000",
    "pts_time": "0.384000"
  },
  {
    "duration_time": "0.064000",
    "pts_time": "0.448000"
  },
  {
    "duration_time": "0.064000",
    "pts_time": "0.512000"
  },
  {
    "duration_time": "0.064000",
    "pts_time": "0.576000"
  },
  {
    "duration_time": "0.064000",
    "pts_time": "0.640000"
  },
  {
    "duration_time": "0.064000",
    "pts_time": "0.704000"
  },
  {
    "duration_time": "0.064000",
    "pts_time": "0.768000"
  },
  {
    "duration_time": "0.064000",
    "pts_time": "0.832000"
  },
  {
    "duration_time": "0.064000",
    "pts_time": "0.896000"
  },
  {
    "duration_time": "0.064000",
    "pts_time": "0.960000"
  },
  {
    "duration_time": "0.064000",
    "pts_time": "1.024000"
  },
  {
    "duration_time": "0.064000",
    "pts_time": "1.088000"
  },
  {
    "duration_time": "0.064000",
    "pts_time": "1.152000"
  },
  {
    "duration_time": "0.064000",
    "pts_time": "1.216000"
  },
  {
    "duration_time": "0.064000",
    "pts_time": "1.280000"
  },
  {
    "duration_time": "0.064000",
    "pts_time": "1.344000"
  },
  {
    "duration_time": "0.064000",
    "pts_time": "1.408000"
  },
  {
    "duration_time": "0.064000",
    "pts_time": "1.472000"
  },
  {
    "duration_time": "0.064000",
    "pts_time": "1.536000"
  },
  {
    "duration_time": "0.064000",
    "pts_time": "1.600000"
  },
  {
    "duration_time": "0.064000",
    "pts_time": "1.664000"
  },
  {
    "duration_time": "0.064000",
    "pts_time": "1.728000"
  },
  {
    "duration_time": "0.064000",
    "pts_time": "1.792000"
  },
  {
    "duration_time": "0.064000",
    "pts_time": "1.856000"
  },
  {
    "duration_time": "0.064000",
    "pts_time": "1.920000"
  },
  {
    "duration_time": "0.064000",
    "pts_time": "1.984000"
  },
  {
    "duration_time": "0.064000",
    "pts_time": "2.048000"
  },
  {
    "duration_time": "0.064000",
    "pts_time": "2.112000"
  },
  {
    "duration_time": "0.064000",
    "pts_time": "2.176000"
  },
  {
    "duration_time": "0.064000",
    "pts_time": "2.240000"
  },
  {
    "duration_time": "0.064000",
    "pts_time": "2.304000"
  },
  {
    "duration_time": "0.064000",
    "pts_time": "2.368000"
  },
  {
    "duration_time": "0.064000",
    "pts_time": "2.432000"
  },
  {
    "duration_time": "0.064000",
    "pts_time": "2.496000"
  },
  {
    "duration_time": "0.064000",
    "pts_time": "2.560000"
  },
  {
    "duration_time": "0.064000",
    "pts_time": "2.624000"
  },
  {
    "duration_time": "0.064000",
    "pts_time": "2.688000"
  },
  {
    "duration_time": "0.064000",
    "pts_time": "2.752000"
  },
  {
    "duration_time": "0.064000",
    "pts_time": "2.816000"
  },
  {
    "duration_time": "0.064000",
    "pts_time": "2.880000"
  },
  {
    "duration_time": "0.064000",
    "pts_time": "2.944000"
  },
  {
    "duration_time": "0.064000",
    "pts_time": "3.008000"
  },
  {
    "duration_time": "0.064000",
    "pts_time": "3.072000"
  },
  {
    "duration_time": "0.064000",
    "pts_time": "3.136000"
  },
  {
    "duration_time": "0.064000",
    "pts_time": "3.200000"
  },
  {
    "duration_time": "0.064000",
    "pts_time": "3.264000"
  },
  {
    "duration_time": "0.064000",
    "pts_time": "3.328000"
  },
  {
    "duration_time": "0.064000",
    "pts_time": "3.392000"
  },
  {
    "duration_time": "0.064000",
    "pts_time": "3.456000"
  },
  {
    "duration_time": "0.064000",
    "pts_time": "3.520000"
  },
  {
    "duration_time": "0.064000",
    "pts_time": "3.584000"
  },
  {
    "duration_time": "0.064000",
    "pts_time": "3.648000"
  },
  {
    "duration_time": "0.064000",
    "pts_time": "3.712000"
  },
  {
    "duration_time": "0.064000",
    "pts_time": "3.776000"
  },
  {
    "duration_time": "0.064000",
    "pts_time": "3.840000"
  },
  {
    "duration_time": "0.064000",
    "pts_time": "3.904000"
  },
  {
    "duration_time": "0.032000",
    "pts_time": "3.968000"
  }
]
